# xmcd
#
# Track frame offsets: 
#        150
#        9385
#        32150
#        45067
#        49212
#        74030
#        91670
#        107122
#        123610
#        156845
#        179325
#        192517
#        201797
#        253562
#        267645
#        280212
#
# Disc length: 3913 seconds
#
# Revision: 0
# Processed by: cddbd v1.5.2PL0 Copyright (c) Steve Scherf et al.
# Submitted via: ExactAudioCopy v1.0b1
#
DISCID=e60f4710
DTITLE=T. Rex  - Unchained- Unreleased Recordings Volume 5- 1974
DYEAR=1900
DGENRE=
TTITLE0=Bolan's Zip Gun
TTITLE1=Lock Into Your Love
TTITLE2=I Never Told Me
TTITLE3=Every Lady
TTITLE4=Do I Love Thee
TTITLE5=(By The Light Of A) Magical Moon
TTITLE6=Sparrow
TTITLE7=Sanctified
TTITLE8=Two Tone Lady (She'll Be Good To Me)
TTITLE9=Video Drama
TTITLE10=Love For Me
TTITLE11=Jet Tambourine
TTITLE12=11.15 (Jam)
TTITLE13=(By The Light Of A) Magical Moon
TTITLE14=Video Drama (Extracts)
TTITLE15=Do I Love Thee
EXTD=
EXTT0=
EXTT1=
EXTT2=
EXTT3=
EXTT4=
EXTT5=
EXTT6=
EXTT7=
EXTT8=
EXTT9=
EXTT10=
EXTT11=
EXTT12=
EXTT13=
EXTT14=
EXTT15=
PLAYORDER=
